<svg width="18.000000" height="14.142883" viewBox="0 0 18 14.1429" fill="none" xmlns="http://www.w3.org/2000/svg" xmlns:xlink="http://www.w3.org/1999/xlink">
	<desc>
			Created with Pixso.
	</desc>
	<defs/>
	<path d="M18 4.56028C17.6987 4.89176 17.3571 5.18305 16.9955 5.43417C15.3181 6.56921 13.6306 7.7143 11.9933 8.89957C11.1496 9.52234 10.1049 10.2857 9.01005 10.2857L9 10.2857L8.98996 10.2857C7.89509 10.2857 6.85045 9.52234 6.0067 8.89957C4.36942 7.70426 2.68192 6.56921 1.01451 5.43417C0.642857 5.18305 0.301339 4.89176 0 4.56028L0 12.5357C0 13.4197 0.723214 14.1429 1.60714 14.1429L16.3929 14.1429C17.2768 14.1429 18 13.4197 18 12.5357L18 4.56028ZM18 1.60716C18 0.723231 17.2667 1.71661e-05 16.3929 1.71661e-05L1.60714 1.71661e-05C0.532366 1.71661e-05 0 0.843767 0 1.82814C0 2.7422 1.01451 3.87725 1.72768 4.35939C3.2846 5.44421 4.86161 6.52904 6.41853 7.6239C7.07143 8.07591 8.17634 9.00002 8.98996 9.00002L9 9.00002L9.01005 9.00002C9.82366 9.00002 10.9286 8.07591 11.5815 7.6239C13.1384 6.52904 14.7154 5.44421 16.2824 4.35939C17.1663 3.74667 18 2.73216 18 1.60716Z" fill="#000000" fill-opacity="1.000000" fill-rule="evenodd"/>
</svg>
