<svg width="48.000000" height="36.000000" viewBox="0 0 48 36" fill="none" xmlns="http://www.w3.org/2000/svg" xmlns:xlink="http://www.w3.org/1999/xlink">
	<desc>
			Created with Pixso.
	</desc>
	<defs/>
	<path d="M43.5 0L4.5 0C1.96875 0 0 2.0625 0 4.5L0 31.5C0 34.0312 1.96875 36 4.5 36L43.5 36C45.9375 36 48 34.0312 48 31.5L48 4.5C48 2.0625 45.9375 0 43.5 0ZM43.5 4.5L43.5 8.34375C41.3438 10.125 37.9688 12.75 30.8438 18.375C29.25 19.5938 26.1562 22.5938 24 22.5C21.75 22.5938 18.6562 19.5938 17.0625 18.375C9.9375 12.75 6.5625 10.125 4.5 8.34375L4.5 4.5L43.5 4.5ZM4.5 31.5L4.5 14.1562C6.5625 15.8438 9.65625 18.2812 14.25 21.9375C16.3125 23.5312 19.9688 27.0938 24 27C27.9375 27.0938 31.5 23.5312 33.6562 21.9375C38.25 18.2812 41.3438 15.8438 43.5 14.1562L43.5 31.5L4.5 31.5Z" fill="#F7654A" fill-opacity="1.000000" fill-rule="evenodd"/>
</svg>
