<svg width="48.018753" height="47.924805" viewBox="0 0 48.0188 47.9248" fill="none" xmlns="http://www.w3.org/2000/svg" xmlns:xlink="http://www.w3.org/1999/xlink">
	<desc>
			Created with Pixso.
	</desc>
	<defs/>
	<path d="M44.6438 2.08105L35.8313 0.112305C33.7688 -0.356445 31.7063 0.674805 30.9563 2.5498L26.8313 12.1123C26.0813 13.7998 26.55 15.8623 28.05 17.0811L31.8 20.1748C29.175 25.0498 25.05 29.0811 20.175 31.7998L17.0813 28.0498C15.8625 26.5498 13.8 26.0811 12.1125 26.8311L2.55 30.8623C0.675003 31.7061 -0.356247 33.7686 0.112503 35.8311L2.08125 44.6436C2.55 46.6123 4.33125 47.9248 6.3 47.9248C29.2688 47.9248 48.0188 29.3623 48.0188 6.2998C48.0188 4.33105 46.6125 2.5498 44.6438 2.08105ZM6.4875 43.4248L4.51875 34.9873L13.7063 31.0498L18.9563 37.4248C28.2375 33.0186 33.0188 28.2373 37.425 18.9561L31.05 13.7061L34.9875 4.51855L43.5188 6.4873C43.425 26.8311 26.8313 43.3311 6.4875 43.4248Z" fill="#F7654A" fill-opacity="1.000000" fill-rule="evenodd"/>
</svg>
